<svg width="70" height="71" viewBox="0 0 70 71" fill="none" xmlns="http://www.w3.org/2000/svg">
<rect y="0.265869" width="70" height="70" rx="35" fill="#ECFDF5"/>
<path d="M19.0413 32.6409C19.0413 23.252 26.9503 15.6409 36.7065 15.6409C46.4627 15.6409 54.3717 23.252 54.3717 32.6409C54.3717 35.0847 53.8358 37.408 52.8711 39.5081L54.375 49.6393L45.353 47.4687C42.7972 48.8519 39.8476 49.6409 36.7065 49.6409M14.6271 43.2659C14.6271 44.7932 14.962 46.2453 15.5649 47.5579L14.625 53.8899L20.2632 52.5333C21.8604 53.3978 23.7038 53.8909 25.6668 53.8909C31.7638 53.8909 36.7065 49.1339 36.7065 43.2659C36.7065 37.3978 31.7638 32.6409 25.6668 32.6409C19.5697 32.6409 14.6271 37.3978 14.6271 43.2659Z" stroke="#10B981" stroke-width="5" stroke-linecap="round" stroke-linejoin="round"/>
</svg>
