<svg width="32" height="32" viewBox="0 0 32 32" fill="none" xmlns="http://www.w3.org/2000/svg">
<path fill-rule="evenodd" clip-rule="evenodd" d="M3.91667 0C1.75355 0 0 1.75355 0 3.91667V6.83333C0 8.99645 1.75355 10.75 3.91667 10.75H9.75C11.9131 10.75 13.6667 8.99645 13.6667 6.83333V3.91667C13.6667 1.75355 11.9131 0 9.75 0H3.91667ZM2 3.91667C2 2.85812 2.85812 2 3.91667 2H9.75C10.8085 2 11.6667 2.85812 11.6667 3.91667V6.83333C11.6667 7.89188 10.8085 8.75 9.75 8.75H3.91667C2.85812 8.75 2 7.89188 2 6.83333V3.91667ZM3.91667 17.5833H9.75C10.2563 17.5833 10.6667 17.9937 10.6667 18.5V27.25C10.6667 27.7563 10.2563 28.1667 9.75 28.1667H3.91667C3.41041 28.1667 3 27.7563 3 27.25V18.5C3 17.9937 3.41041 17.5833 3.91667 17.5833ZM1 18.5C1 16.8892 2.30584 15.5833 3.91667 15.5833H9.75C11.3608 15.5833 12.6667 16.8892 12.6667 18.5V27.25C12.6667 28.8608 11.3608 30.1667 9.75 30.1667H3.91667C2.30584 30.1667 1 28.8608 1 27.25V18.5ZM17.5 3.91667C17.5 1.75355 19.2536 0 21.4167 0H27.25C29.4131 0 31.1667 1.75355 31.1667 3.91667V12.6667C31.1667 14.8298 29.4131 16.5833 27.25 16.5833H21.4167C19.2536 16.5833 17.5 14.8298 17.5 12.6667V3.91667ZM21.4167 2C20.3581 2 19.5 2.85812 19.5 3.91667V12.6667C19.5 13.7252 20.3581 14.5833 21.4167 14.5833H27.25C28.3086 14.5833 29.1667 13.7252 29.1667 12.6667V3.91667C29.1667 2.85812 28.3086 2 27.25 2H21.4167ZM21.4167 20.4167C19.2536 20.4167 17.5 22.1702 17.5 24.3333V27.25C17.5 29.4131 19.2536 31.1667 21.4167 31.1667H27.25C29.4131 31.1667 31.1667 29.4131 31.1667 27.25V24.3333C31.1667 22.1702 29.4131 20.4167 27.25 20.4167H21.4167ZM19.5 24.3333C19.5 23.2748 20.3581 22.4167 21.4167 22.4167H27.25C28.3086 22.4167 29.1667 23.2748 29.1667 24.3333V27.25C29.1667 28.3085 28.3086 29.1667 27.25 29.1667H21.4167C20.3581 29.1667 19.5 28.3085 19.5 27.25V24.3333Z" fill="white"/>
</svg>
