<svg width="50" height="50" viewBox="0 0 50 50" fill="none" xmlns="http://www.w3.org/2000/svg">
<path fill-rule="evenodd" clip-rule="evenodd" d="M14.5837 8.33335C11.1319 8.33335 8.33366 11.1316 8.33366 14.5834V35.4167C8.33366 38.8685 11.1319 41.6667 14.5837 41.6667H35.417C38.8688 41.6667 41.667 38.8685 41.667 35.4167V22.9167C41.667 21.7661 42.5997 20.8334 43.7503 20.8334C44.9009 20.8334 45.8337 21.7661 45.8337 22.9167V35.4167C45.8337 41.1697 41.17 45.8334 35.417 45.8334H14.5837C8.83069 45.8334 4.16699 41.1697 4.16699 35.4167V14.5834C4.16699 8.83039 8.83069 4.16669 14.5837 4.16669H27.0837C28.2343 4.16669 29.167 5.09943 29.167 6.25002C29.167 7.40061 28.2343 8.33335 27.0837 8.33335H14.5837Z" fill="#1F2937"/>
<path fill-rule="evenodd" clip-rule="evenodd" d="M39.9948 8.33335C39.5513 8.33335 39.126 8.50953 38.8124 8.82313L22.4019 25.2336L21.6136 28.3868L24.7668 27.5985L41.1773 11.188C41.4909 10.8744 41.667 10.449 41.667 10.0055C41.667 9.56205 41.4909 9.13672 41.1773 8.82313C40.8637 8.50953 40.4383 8.33335 39.9948 8.33335ZM35.8661 5.87685C36.9611 4.78185 38.4463 4.16669 39.9948 4.16669C41.5434 4.16669 43.0285 4.78185 44.1235 5.87685C45.2185 6.97185 45.8337 8.45699 45.8337 10.0055C45.8337 11.5541 45.2185 13.0392 44.1235 14.1342L27.305 30.9528C27.038 31.2198 26.7035 31.4092 26.3371 31.5008L19.2557 33.2711C18.5457 33.4486 17.7947 33.2406 17.2772 32.7232C16.7598 32.2057 16.5518 31.4547 16.7292 30.7447L18.4996 23.6632C18.5912 23.2969 18.7806 22.9624 19.0476 22.6954L35.8661 5.87685Z" fill="#1F2937"/>
<path fill-rule="evenodd" clip-rule="evenodd" d="M31.8602 11.0269C32.6738 10.2133 33.9929 10.2133 34.8065 11.0269L38.9731 15.1935C39.7867 16.0071 39.7867 17.3262 38.9731 18.1398C38.1595 18.9534 36.8405 18.9534 36.0269 18.1398L31.8602 13.9732C31.0466 13.1596 31.0466 11.8405 31.8602 11.0269Z" fill="#1F2937"/>
</svg>
