<svg width="43" height="43" viewBox="0 0 43 43" fill="none" xmlns="http://www.w3.org/2000/svg">
<path d="M21.4997 23.2916C22.4892 23.2916 23.2913 22.4895 23.2913 21.5C23.2913 20.5105 22.4892 19.7083 21.4997 19.7083C20.5102 19.7083 19.708 20.5105 19.708 21.5C19.708 22.4895 20.5102 23.2916 21.4997 23.2916Z" fill="#0C3FF3" stroke="#0C3FF3" stroke-width="2" stroke-linecap="round" stroke-linejoin="round"/>
<path d="M34.0417 23.2916C35.0312 23.2916 35.8333 22.4895 35.8333 21.5C35.8333 20.5105 35.0312 19.7083 34.0417 19.7083C33.0522 19.7083 32.25 20.5105 32.25 21.5C32.25 22.4895 33.0522 23.2916 34.0417 23.2916Z" fill="#0C3FF3" stroke="#0C3FF3" stroke-width="2" stroke-linecap="round" stroke-linejoin="round"/>
<path d="M8.95866 23.2916C9.94817 23.2916 10.7503 22.4895 10.7503 21.5C10.7503 20.5105 9.94817 19.7083 8.95866 19.7083C7.96915 19.7083 7.16699 20.5105 7.16699 21.5C7.16699 22.4895 7.96915 23.2916 8.95866 23.2916Z" fill="#0C3FF3" stroke="#0C3FF3" stroke-width="2" stroke-linecap="round" stroke-linejoin="round"/>
</svg>
