<svg width="26" height="24" viewBox="0 0 26 24" fill="none" xmlns="http://www.w3.org/2000/svg">
<path d="M3.22222 4.22222L10.6871 9.85944L10.6896 9.8615C11.5185 10.4693 11.9332 10.7735 12.3874 10.8909C12.7888 10.9948 13.2108 10.9948 13.6123 10.8909C14.0669 10.7733 14.4828 10.4684 15.3132 9.85944C15.3132 9.85944 20.1012 6.18504 22.7778 4.22222M2 16.2002V6.91135C2 5.54233 2 4.85731 2.26643 4.33442C2.50079 3.87447 2.87447 3.50079 3.33442 3.26643C3.85731 3 4.54233 3 5.91135 3H20.0891C21.4581 3 22.1417 3 22.6646 3.26643C23.1245 3.50079 23.4995 3.87447 23.7338 4.33442C24 4.8568 24 5.54099 24 6.90733V16.2044C24 17.5707 24 18.2539 23.7338 18.7763C23.4995 19.2363 23.1245 19.6106 22.6646 19.8449C22.1422 20.1111 21.459 20.1111 20.0927 20.1111H5.90733C4.54099 20.1111 3.8568 20.1111 3.33442 19.8449C2.87447 19.6106 2.50079 19.2363 2.26643 18.7763C2 18.2534 2 17.5693 2 16.2002Z" stroke="#737373" stroke-width="2.2" stroke-linecap="round" stroke-linejoin="round"/>
</svg>
