<svg width="24" height="24" viewBox="0 0 24 24" fill="none" xmlns="http://www.w3.org/2000/svg">
<path d="M9.54518 8.64285L10.509 8.37611L10.509 8.3761L9.54518 8.64285ZM15.3591 14.4382L15.6262 13.4745L15.6262 13.4745L15.3591 14.4382ZM17.836 18.7018L16.8873 18.3858L16.8872 18.3858L17.836 18.7018ZM5.28475 6.16411L5.60114 7.11273L5.60116 7.11273L5.28475 6.16411ZM10.7574 15.5971L11.3298 14.7771L10.7574 15.5971ZM11.4363 15.4941L10.7054 14.8116L11.4363 15.4941ZM8.5005 12.5588L9.18647 13.2865L8.5005 12.5588ZM8.39933 13.2365L7.57878 13.8081L7.57878 13.8081L8.39933 13.2365ZM9.18647 13.2865C10.4545 12.091 11.0099 10.186 10.509 8.37611L8.58141 8.90958C8.88743 10.0153 8.53516 11.1518 7.81453 11.8312L9.18647 13.2865ZM10.1826 13.8149C9.82246 13.4545 9.50171 13.0695 9.21988 12.6649L7.57878 13.8081C7.92751 14.3087 8.32391 14.7843 8.76787 15.2286L10.1826 13.8149ZM11.3298 14.7771C10.9263 14.4954 10.5423 14.1748 10.1826 13.8149L8.76787 15.2286C9.21114 15.6722 9.68554 16.0684 10.1851 16.4171L11.3298 14.7771ZM15.6262 13.4745C13.8106 12.9713 11.8992 13.533 10.7054 14.8116L12.1672 16.1766C12.8451 15.4505 13.9841 15.0948 15.092 15.4018L15.6262 13.4745ZM18.7848 19.0178C19.5901 16.5997 18.0782 14.1542 15.6262 13.4745L15.092 15.4018C16.5807 15.8145 17.2866 17.1867 16.8873 18.3858L18.7848 19.0178ZM10.509 8.3761C9.83018 5.92366 7.38653 4.4089 4.96834 5.21548L5.60116 7.11273C6.7975 6.71369 8.16873 7.4185 8.58142 8.90959L10.509 8.3761ZM4.96836 5.21548C3.39284 5.74096 2.43378 6.7213 2.11585 8.02889C1.82033 9.24428 2.12835 10.5559 2.60671 11.715C3.57004 14.0491 5.47664 16.3617 6.55614 17.442L7.97088 16.0283C6.98981 15.0465 5.27992 12.9497 4.45545 10.952C4.03992 9.94514 3.91121 9.11016 4.05923 8.50141C4.18483 7.98485 4.54955 7.46347 5.60114 7.11273L4.96836 5.21548ZM6.55614 17.442C7.61075 18.4974 9.91993 20.4122 12.2585 21.3844C13.4196 21.867 14.7361 22.1805 15.9571 21.8856C17.2711 21.5683 18.2564 20.6044 18.7848 19.0178L16.8872 18.3858C16.5331 19.4492 16.007 19.8161 15.4876 19.9415C14.8752 20.0894 14.0361 19.9574 13.0262 19.5376C11.0228 18.7048 8.92821 16.9863 7.97088 16.0283L6.55614 17.442ZM10.1851 16.4171C10.895 16.9126 11.7294 16.6454 12.1672 16.1766L10.7054 14.8116C10.7607 14.7523 10.8398 14.7043 10.9423 14.6869C11.052 14.6682 11.1985 14.6854 11.3298 14.7771L10.1851 16.4171ZM7.81453 11.8312C7.34911 12.27 7.08636 13.1012 7.57878 13.8081L9.21988 12.6649C9.31091 12.7956 9.32818 12.9411 9.30989 13.0501C9.29279 13.152 9.24536 13.231 9.18647 13.2865L7.81453 11.8312Z" fill="black"/>
</svg>
