<svg width="33" height="33" viewBox="0 0 33 33" fill="none" xmlns="http://www.w3.org/2000/svg">
<path d="M16.4657 4.11283C15.4825 4.12383 14.531 4.32184 13.8009 4.67109C12.5365 5.27746 5.5083 8.79609 5.5083 8.79609C7.88347 9.98409 14.0883 13.0861 14.8748 13.4794C15.7314 13.907 17.2852 13.9084 18.1418 13.4794L27.5935 8.84007C27.5935 8.84007 21.2768 5.63634 19.3009 4.67109C18.4649 4.26271 17.4474 4.10183 16.4657 4.11283ZM4.1333 10.9878V20.5276C4.13344 22.1899 5.26011 23.9953 6.75432 24.7378L15.1333 28.8628V16.3586C14.7524 16.3063 14.0539 16.0974 13.6293 15.8856L4.90674 11.5461C4.39771 11.2931 4.1333 10.9878 4.1333 10.9878ZM28.8833 10.9878C28.8833 10.9878 28.6193 11.2931 28.1105 11.5461L19.3875 15.8856C18.9627 16.0974 18.2642 16.3063 17.8833 16.3586V28.8628L26.2625 24.7378C27.7558 23.9953 28.8833 22.1899 28.8833 20.5276V10.9878Z" fill="white"/>
</svg>
