<svg width="22" height="22" viewBox="0 0 22 22" fill="none" xmlns="http://www.w3.org/2000/svg">
<path d="M2.90424 14.5951L2.1851 13.9003C2.07414 14.0151 1.9923 14.1548 1.94641 14.3078L2.90424 14.5951ZM15.4208 1.64146L14.7137 0.934351C14.7096 0.938396 14.7056 0.942475 14.7016 0.946589L15.4208 1.64146ZM20.3011 6.52181L20.996 7.24095C21.0001 7.23698 21.0042 7.23297 21.0082 7.22892L20.3011 6.52181ZM7.34747 19.0384L7.63482 19.9962C7.78777 19.9503 7.9275 19.8685 8.04234 19.7575L7.34747 19.0384ZM1 20.9426L0.0421737 20.6553C-0.0635365 21.0076 0.032761 21.3896 0.292893 21.6497C0.553025 21.9098 0.93498 22.0061 1.28735 21.9004L1 20.9426ZM19.5135 2.63284L20.2206 1.92573V1.92573L19.5135 2.63284ZM3.62338 15.29L16.1399 2.33633L14.7016 0.946589L2.1851 13.9003L3.62338 15.29ZM19.6063 5.80268L6.6526 18.3192L8.04234 19.7575L20.996 7.24095L19.6063 5.80268ZM7.06012 18.0805L0.712652 19.9848L1.28735 21.9004L7.63482 19.9962L7.06012 18.0805ZM1.95783 21.2299L3.86207 14.8825L1.94641 14.3078L0.0421737 20.6553L1.95783 21.2299ZM21.0082 7.22892C21.4299 6.80724 21.7421 6.34016 21.8957 5.81666C22.0524 5.2824 22.0224 4.76255 21.8732 4.28127C21.5955 3.38526 20.8907 2.59591 20.2206 1.92573L18.8063 3.33995C19.4838 4.01744 19.8468 4.49874 19.9629 4.87338C20.0106 5.02743 20.0091 5.1429 19.9766 5.2536C19.9409 5.37505 19.8462 5.56255 19.594 5.81471L21.0082 7.22892ZM16.1279 2.34856C16.3582 2.11826 16.535 2.04128 16.6552 2.01472C16.7752 1.98817 16.9234 1.99325 17.1274 2.06693C17.5855 2.23238 18.1357 2.66934 18.8063 3.33995L20.2206 1.92573C19.5435 1.24866 18.7212 0.516098 17.8068 0.185853C17.3246 0.0116952 16.7865 -0.0626174 16.2234 0.0618731C15.6604 0.186343 15.1572 0.490816 14.7137 0.934351L16.1279 2.34856Z" fill="#1E40AF"/>
</svg>
