<svg width="23" height="23" viewBox="0 0 23 23" fill="none" xmlns="http://www.w3.org/2000/svg">
<path d="M3.76947 14.9916L3.05034 14.2967C2.93938 14.4116 2.85753 14.5513 2.81165 14.7043L3.76947 14.9916ZM16.286 2.03794L15.5789 1.33084C15.5749 1.33488 15.5709 1.33896 15.5669 1.34307L16.286 2.03794ZM21.1664 6.9183L21.8612 7.63744C21.8654 7.63346 21.8694 7.62945 21.8735 7.62541L21.1664 6.9183ZM8.2127 19.4348L8.50005 20.3927C8.653 20.3468 8.79274 20.2649 8.90757 20.154L8.2127 19.4348ZM1.86523 21.3391L0.907408 21.0517C0.801698 21.4041 0.897995 21.7861 1.15813 22.0462C1.41826 22.3063 1.80021 22.4026 2.15258 22.2969L1.86523 21.3391ZM20.3787 3.02932L21.0858 2.32222L21.0858 2.32222L20.3787 3.02932ZM4.48861 15.6865L17.0051 2.73281L15.5669 1.34307L3.05034 14.2967L4.48861 15.6865ZM20.4715 6.19916L7.51783 18.7157L8.90757 20.154L21.8612 7.63744L20.4715 6.19916ZM7.92536 18.477L1.57789 20.3813L2.15258 22.2969L8.50005 20.3927L7.92536 18.477ZM2.82306 21.6264L4.7273 15.279L2.81165 14.7043L0.907408 21.0517L2.82306 21.6264ZM21.8735 7.62541C22.2952 7.20372 22.6073 6.73664 22.7609 6.21314C22.9177 5.67889 22.8876 5.15903 22.7385 4.67775C22.4607 3.78174 21.756 2.9924 21.0858 2.32222L19.6716 3.73643C20.3491 4.41392 20.712 4.89523 20.8281 5.26987C20.8759 5.42391 20.8743 5.53938 20.8418 5.65008C20.8062 5.77153 20.7114 5.95903 20.4593 6.21119L21.8735 7.62541ZM16.9931 2.74505C17.2234 2.51475 17.4002 2.43777 17.5204 2.4112C17.6405 2.38466 17.7886 2.38973 17.9927 2.46342C18.4508 2.62886 19.001 3.06583 19.6716 3.73643L21.0858 2.32222C20.4087 1.64515 19.5864 0.912582 18.672 0.582338C18.1898 0.40818 17.6517 0.333867 17.0887 0.458357C16.5257 0.582827 16.0224 0.8873 15.5789 1.33084L16.9931 2.74505Z" fill="#1E40AF"/>
</svg>
