<svg width="24" height="24" viewBox="0 0 24 24" fill="none" xmlns="http://www.w3.org/2000/svg">
<path fill-rule="evenodd" clip-rule="evenodd" d="M12.0502 23.7938H12.0453C10.0453 23.7931 8.08018 23.2937 6.33478 22.3462L0 24L1.69529 17.8374C0.649554 16.0338 0.099291 13.9879 0.100188 11.8919C0.102809 5.33474 5.4635 0 12.0501 0C15.2468 0.00137307 18.2472 1.23989 20.5033 3.48784C22.7594 5.73568 24.0013 8.72361 24 11.9013C23.9974 18.4569 18.6388 23.7911 12.0502 23.7938ZM6.63159 20.1934L6.99428 20.4076C8.51922 21.3082 10.2673 21.7848 12.0495 21.7855H12.0536C17.5279 21.7855 21.9835 17.3511 21.9856 11.9007C21.9867 9.25951 20.9546 6.77607 19.0793 4.90766C17.2041 3.03924 14.7104 2.00978 12.0575 2.00886C6.57889 2.00886 2.12327 6.44276 2.12109 11.8927C2.12032 13.7605 2.64543 15.5794 3.63966 17.1532L3.87582 17.5272L2.87245 21.1748L6.63159 20.1934ZM17.6599 14.4618C17.8682 14.562 18.0088 14.6296 18.0688 14.7294C18.1434 14.8533 18.1434 15.4482 17.8948 16.1425C17.6458 16.8366 16.453 17.4701 15.8793 17.5554C15.3649 17.6319 14.7139 17.6639 13.9987 17.4376C13.565 17.3007 13.0089 17.1179 12.2965 16.8117C9.49729 15.6088 7.60562 12.9088 7.2481 12.3985C7.22305 12.3627 7.20554 12.3377 7.19576 12.3247L7.19335 12.3215C7.03533 12.1117 5.97656 10.7058 5.97656 9.25075C5.97656 7.88197 6.65216 7.16453 6.96314 6.83429C6.98445 6.81166 7.00404 6.79085 7.02159 6.77178C7.29527 6.47428 7.61877 6.3999 7.81781 6.3999C8.01685 6.3999 8.21612 6.40173 8.39008 6.41043C8.41155 6.4115 8.43388 6.41137 8.45696 6.41124C8.63096 6.41022 8.84789 6.40896 9.06188 6.92053C9.14421 7.11739 9.26466 7.40925 9.39171 7.71706C9.64864 8.33959 9.93253 9.02741 9.98248 9.12695C10.0571 9.2757 10.1069 9.44916 10.0074 9.64757C9.99243 9.67732 9.97861 9.7054 9.96541 9.73222C9.89065 9.8841 9.83567 9.99582 9.70879 10.1433C9.6589 10.2012 9.60734 10.2637 9.55578 10.3262C9.45305 10.4507 9.35034 10.5752 9.2609 10.6639C9.11143 10.8121 8.95582 10.9728 9.12999 11.2703C9.30417 11.5678 9.90341 12.5409 10.791 13.3288C11.7452 14.1759 12.5745 14.5339 12.9949 14.7153C13.077 14.7507 13.1435 14.7794 13.1922 14.8037C13.4907 14.9525 13.6649 14.9276 13.8391 14.7294C14.0133 14.5311 14.5855 13.8617 14.7845 13.5642C14.9835 13.2668 15.1827 13.3164 15.4563 13.4155C15.73 13.5147 17.198 14.2335 17.4966 14.3823C17.5549 14.4113 17.6094 14.4375 17.6599 14.4618Z" fill="#737373"/>
</svg>
