<svg width="33" height="33" viewBox="0 0 33 33" fill="none" xmlns="http://www.w3.org/2000/svg">
<path fill-rule="evenodd" clip-rule="evenodd" d="M4.91667 1C2.75355 1 1 2.75355 1 4.91667V7.83333C1 9.99645 2.75355 11.75 4.91667 11.75H10.75C12.9131 11.75 14.6667 9.99645 14.6667 7.83333V4.91667C14.6667 2.75355 12.9131 1 10.75 1H4.91667ZM3 4.91667C3 3.85812 3.85812 3 4.91667 3H10.75C11.8085 3 12.6667 3.85812 12.6667 4.91667V7.83333C12.6667 8.89188 11.8085 9.75 10.75 9.75H4.91667C3.85812 9.75 3 8.89188 3 7.83333V4.91667ZM4.91667 18.5833H10.75C11.2563 18.5833 11.6667 18.9937 11.6667 19.5V28.25C11.6667 28.7563 11.2563 29.1667 10.75 29.1667H4.91667C4.41041 29.1667 4 28.7563 4 28.25V19.5C4 18.9937 4.41041 18.5833 4.91667 18.5833ZM2 19.5C2 17.8892 3.30584 16.5833 4.91667 16.5833H10.75C12.3608 16.5833 13.6667 17.8892 13.6667 19.5V28.25C13.6667 29.8608 12.3608 31.1667 10.75 31.1667H4.91667C3.30584 31.1667 2 29.8608 2 28.25V19.5ZM18.5 4.91667C18.5 2.75355 20.2536 1 22.4167 1H28.25C30.4131 1 32.1667 2.75355 32.1667 4.91667V13.6667C32.1667 15.8298 30.4131 17.5833 28.25 17.5833H22.4167C20.2536 17.5833 18.5 15.8298 18.5 13.6667V4.91667ZM22.4167 3C21.3581 3 20.5 3.85812 20.5 4.91667V13.6667C20.5 14.7252 21.3581 15.5833 22.4167 15.5833H28.25C29.3086 15.5833 30.1667 14.7252 30.1667 13.6667V4.91667C30.1667 3.85812 29.3086 3 28.25 3H22.4167ZM22.4167 21.4167C20.2536 21.4167 18.5 23.1702 18.5 25.3333V28.25C18.5 30.4131 20.2536 32.1667 22.4167 32.1667H28.25C30.4131 32.1667 32.1667 30.4131 32.1667 28.25V25.3333C32.1667 23.1702 30.4131 21.4167 28.25 21.4167H22.4167ZM20.5 25.3333C20.5 24.2748 21.3581 23.4167 22.4167 23.4167H28.25C29.3086 23.4167 30.1667 24.2748 30.1667 25.3333V28.25C30.1667 29.3085 29.3086 30.1667 28.25 30.1667H22.4167C21.3581 30.1667 20.5 29.3085 20.5 28.25V25.3333Z" fill="#1D1F1E"/>
<path d="M1.5 4.91667C1.5 3.02969 3.02969 1.5 4.91667 1.5V0.5C2.47741 0.5 0.5 2.47741 0.5 4.91667H1.5ZM1.5 7.83333V4.91667H0.5V7.83333H1.5ZM4.91667 11.25C3.02969 11.25 1.5 9.72031 1.5 7.83333H0.5C0.5 10.2726 2.47741 12.25 4.91667 12.25V11.25ZM10.75 11.25H4.91667V12.25H10.75V11.25ZM14.1667 7.83333C14.1667 9.72031 12.637 11.25 10.75 11.25V12.25C13.1893 12.25 15.1667 10.2726 15.1667 7.83333H14.1667ZM14.1667 4.91667V7.83333H15.1667V4.91667H14.1667ZM10.75 1.5C12.637 1.5 14.1667 3.02969 14.1667 4.91667H15.1667C15.1667 2.47741 13.1893 0.5 10.75 0.5V1.5ZM4.91667 1.5H10.75V0.5H4.91667V1.5ZM4.91667 2.5C3.58198 2.5 2.5 3.58198 2.5 4.91667H3.5C3.5 4.13426 4.13426 3.5 4.91667 3.5V2.5ZM10.75 2.5H4.91667V3.5H10.75V2.5ZM13.1667 4.91667C13.1667 3.58198 12.0847 2.5 10.75 2.5V3.5C11.5324 3.5 12.1667 4.13426 12.1667 4.91667H13.1667ZM13.1667 7.83333V4.91667H12.1667V7.83333H13.1667ZM10.75 10.25C12.0847 10.25 13.1667 9.16802 13.1667 7.83333H12.1667C12.1667 8.61574 11.5324 9.25 10.75 9.25V10.25ZM4.91667 10.25H10.75V9.25H4.91667V10.25ZM2.5 7.83333C2.5 9.16802 3.58198 10.25 4.91667 10.25V9.25C4.13426 9.25 3.5 8.61574 3.5 7.83333H2.5ZM2.5 4.91667V7.83333H3.5V4.91667H2.5ZM10.75 18.0833H4.91667V19.0833H10.75V18.0833ZM12.1667 19.5C12.1667 18.7176 11.5324 18.0833 10.75 18.0833V19.0833C10.9801 19.0833 11.1667 19.2699 11.1667 19.5H12.1667ZM12.1667 28.25V19.5H11.1667V28.25H12.1667ZM10.75 29.6667C11.5324 29.6667 12.1667 29.0324 12.1667 28.25H11.1667C11.1667 28.4801 10.9801 28.6667 10.75 28.6667V29.6667ZM4.91667 29.6667H10.75V28.6667H4.91667V29.6667ZM3.5 28.25C3.5 29.0324 4.13426 29.6667 4.91667 29.6667V28.6667C4.68655 28.6667 4.5 28.4801 4.5 28.25H3.5ZM3.5 19.5V28.25H4.5V19.5H3.5ZM4.91667 18.0833C4.13426 18.0833 3.5 18.7176 3.5 19.5H4.5C4.5 19.2699 4.68655 19.0833 4.91667 19.0833V18.0833ZM4.91667 16.0833C3.02969 16.0833 1.5 17.613 1.5 19.5H2.5C2.5 18.1653 3.58198 17.0833 4.91667 17.0833V16.0833ZM10.75 16.0833H4.91667V17.0833H10.75V16.0833ZM14.1667 19.5C14.1667 17.613 12.637 16.0833 10.75 16.0833V17.0833C12.0847 17.0833 13.1667 18.1653 13.1667 19.5H14.1667ZM14.1667 28.25V19.5H13.1667V28.25H14.1667ZM10.75 31.6667C12.637 31.6667 14.1667 30.137 14.1667 28.25H13.1667C13.1667 29.5847 12.0847 30.6667 10.75 30.6667V31.6667ZM4.91667 31.6667H10.75V30.6667H4.91667V31.6667ZM1.5 28.25C1.5 30.137 3.02969 31.6667 4.91667 31.6667V30.6667C3.58198 30.6667 2.5 29.5847 2.5 28.25H1.5ZM1.5 19.5V28.25H2.5V19.5H1.5ZM22.4167 0.5C19.9774 0.5 18 2.47741 18 4.91667H19C19 3.02969 20.5297 1.5 22.4167 1.5V0.5ZM28.25 0.5H22.4167V1.5H28.25V0.5ZM32.6667 4.91667C32.6667 2.47741 30.6893 0.5 28.25 0.5V1.5C30.137 1.5 31.6667 3.02969 31.6667 4.91667H32.6667ZM32.6667 13.6667V4.91667H31.6667V13.6667H32.6667ZM28.25 18.0833C30.6893 18.0833 32.6667 16.1059 32.6667 13.6667H31.6667C31.6667 15.5536 30.137 17.0833 28.25 17.0833V18.0833ZM22.4167 18.0833H28.25V17.0833H22.4167V18.0833ZM18 13.6667C18 16.1059 19.9774 18.0833 22.4167 18.0833V17.0833C20.5297 17.0833 19 15.5536 19 13.6667H18ZM18 4.91667V13.6667H19V4.91667H18ZM21 4.91667C21 4.13426 21.6343 3.5 22.4167 3.5V2.5C21.082 2.5 20 3.58198 20 4.91667H21ZM21 13.6667V4.91667H20V13.6667H21ZM22.4167 15.0833C21.6343 15.0833 21 14.4491 21 13.6667H20C20 15.0014 21.082 16.0833 22.4167 16.0833V15.0833ZM28.25 15.0833H22.4167V16.0833H28.25V15.0833ZM29.6667 13.6667C29.6667 14.4491 29.0324 15.0833 28.25 15.0833V16.0833C29.5847 16.0833 30.6667 15.0014 30.6667 13.6667H29.6667ZM29.6667 4.91667V13.6667H30.6667V4.91667H29.6667ZM28.25 3.5C29.0324 3.5 29.6667 4.13426 29.6667 4.91667H30.6667C30.6667 3.58198 29.5847 2.5 28.25 2.5V3.5ZM22.4167 3.5H28.25V2.5H22.4167V3.5ZM19 25.3333C19 23.4464 20.5297 21.9167 22.4167 21.9167V20.9167C19.9774 20.9167 18 22.8941 18 25.3333H19ZM19 28.25V25.3333H18V28.25H19ZM22.4167 31.6667C20.5297 31.6667 19 30.137 19 28.25H18C18 30.6893 19.9774 32.6667 22.4167 32.6667V31.6667ZM28.25 31.6667H22.4167V32.6667H28.25V31.6667ZM31.6667 28.25C31.6667 30.137 30.137 31.6667 28.25 31.6667V32.6667C30.6893 32.6667 32.6667 30.6893 32.6667 28.25H31.6667ZM31.6667 25.3333V28.25H32.6667V25.3333H31.6667ZM28.25 21.9167C30.137 21.9167 31.6667 23.4464 31.6667 25.3333H32.6667C32.6667 22.8941 30.6893 20.9167 28.25 20.9167V21.9167ZM22.4167 21.9167H28.25V20.9167H22.4167V21.9167ZM22.4167 22.9167C21.082 22.9167 20 23.9986 20 25.3333H21C21 24.5509 21.6343 23.9167 22.4167 23.9167V22.9167ZM28.25 22.9167H22.4167V23.9167H28.25V22.9167ZM30.6667 25.3333C30.6667 23.9986 29.5847 22.9167 28.25 22.9167V23.9167C29.0324 23.9167 29.6667 24.5509 29.6667 25.3333H30.6667ZM30.6667 28.25V25.3333H29.6667V28.25H30.6667ZM28.25 30.6667C29.5847 30.6667 30.6667 29.5847 30.6667 28.25H29.6667C29.6667 29.0324 29.0324 29.6667 28.25 29.6667V30.6667ZM22.4167 30.6667H28.25V29.6667H22.4167V30.6667ZM20 28.25C20 29.5847 21.082 30.6667 22.4167 30.6667V29.6667C21.6343 29.6667 21 29.0324 21 28.25H20ZM20 25.3333V28.25H21V25.3333H20Z" fill="#1D1F1E"/>
</svg>
