<svg width="20" height="24" viewBox="0 0 20 24" fill="none" xmlns="http://www.w3.org/2000/svg">
<path d="M17.9491 5.53651L14.4651 2.05051C13.8164 1.39865 13.045 0.881842 12.1953 0.529971C11.3457 0.178099 10.4347 -0.0018556 9.51512 0.00051133H5.00012C3.67453 0.00209919 2.40368 0.529393 1.46634 1.46673C0.529004 2.40407 0.00170993 3.67492 0.00012207 5.00051V19.0005C0.00170993 20.3261 0.529004 21.597 1.46634 22.5343C2.40368 23.4716 3.67453 23.9989 5.00012 24.0005H15.0001C16.3257 23.9989 17.5966 23.4716 18.5339 22.5343C19.4712 21.597 19.9985 20.3261 20.0001 19.0005V10.4855C20.0026 9.56593 19.8226 8.655 19.4705 7.80549C19.1185 6.95597 18.6014 6.18475 17.9491 5.53651ZM16.5351 6.95051C16.8405 7.26466 17.1031 7.6177 17.3161 8.00051H13.0001C12.7349 8.00051 12.4806 7.89515 12.293 7.70762C12.1055 7.52008 12.0001 7.26573 12.0001 7.00051V2.68451C12.3831 2.89744 12.7364 3.15967 13.0511 3.46451L16.5351 6.95051ZM18.0001 19.0005C18.0001 19.7962 17.6841 20.5592 17.1214 21.1218C16.5588 21.6844 15.7958 22.0005 15.0001 22.0005H5.00012C4.20447 22.0005 3.44141 21.6844 2.8788 21.1218C2.31619 20.5592 2.00012 19.7962 2.00012 19.0005V5.00051C2.00012 4.20486 2.31619 3.4418 2.8788 2.87919C3.44141 2.31658 4.20447 2.00051 5.00012 2.00051H9.51512C9.67912 2.00051 9.83812 2.03251 10.0001 2.04751V7.00051C10.0001 7.79616 10.3162 8.55922 10.8788 9.12183C11.4414 9.68444 12.2045 10.0005 13.0001 10.0005H17.9531C17.9681 10.1625 18.0001 10.3205 18.0001 10.4855V19.0005Z" fill="#374957"/>
</svg>
