<svg width="33" height="33" viewBox="0 0 33 33" fill="none" xmlns="http://www.w3.org/2000/svg">
<path fill-rule="evenodd" clip-rule="evenodd" d="M11 23.375C11 22.6156 11.6156 22 12.375 22H20.625C21.3844 22 22 22.6156 22 23.375C22 24.1344 21.3844 24.75 20.625 24.75H12.375C11.6156 24.75 11 24.1344 11 23.375Z" fill="white"/>
<path fill-rule="evenodd" clip-rule="evenodd" d="M11 17.875C11 17.1156 11.6156 16.5 12.375 16.5H20.625C21.3844 16.5 22 17.1156 22 17.875C22 18.6344 21.3844 19.25 20.625 19.25H12.375C11.6156 19.25 11 18.6344 11 17.875Z" fill="white"/>
<path fill-rule="evenodd" clip-rule="evenodd" d="M11 12.375C11 11.6156 11.6156 11 12.375 11H13.75C14.5094 11 15.125 11.6156 15.125 12.375C15.125 13.1344 14.5094 13.75 13.75 13.75H12.375C11.6156 13.75 11 13.1344 11 12.375Z" fill="white"/>
<path fill-rule="evenodd" clip-rule="evenodd" d="M11 5.5C9.48122 5.5 8.25 6.73122 8.25 8.25V24.75C8.25 26.2688 9.48122 27.5 11 27.5H22C23.5188 27.5 24.75 26.2688 24.75 24.75V12.1391C24.75 11.7744 24.6051 11.4247 24.3473 11.1668L19.0832 5.90273C18.8253 5.64487 18.4756 5.5 18.1109 5.5H11ZM5.5 8.25C5.5 5.21244 7.96243 2.75 11 2.75H18.1109C19.2049 2.75 20.2541 3.1846 21.0277 3.95818L26.2918 9.22227C27.0654 9.99586 27.5 11.0451 27.5 12.1391V24.75C27.5 27.7876 25.0376 30.25 22 30.25H11C7.96243 30.25 5.5 27.7876 5.5 24.75V8.25Z" fill="white"/>
<path fill-rule="evenodd" clip-rule="evenodd" d="M19.25 4.125V6.875C19.25 9.15317 21.0968 11 23.375 11H26.125V13.75H23.375C19.578 13.75 16.5 10.672 16.5 6.875V4.125H19.25Z" fill="white"/>
</svg>
