<svg width="65" height="65" viewBox="0 0 65 65" fill="none" xmlns="http://www.w3.org/2000/svg">
<path d="M40.6248 61.6147H24.3748C9.66859 61.6147 3.38525 55.3313 3.38525 40.6251V24.3751C3.38525 9.66883 9.66859 3.3855 24.3748 3.3855H40.6248C55.3311 3.3855 61.6144 9.66883 61.6144 24.3751V40.6251C61.6144 55.3313 55.3311 61.6147 40.6248 61.6147ZM24.3748 7.448C11.8894 7.448 7.44775 11.8897 7.44775 24.3751V40.6251C7.44775 53.1105 11.8894 57.5522 24.3748 57.5522H40.6248C53.1103 57.5522 57.5519 53.1105 57.5519 40.6251V24.3751C57.5519 11.8897 53.1103 7.448 40.6248 7.448H24.3748Z" fill="#1D1F1E"/>
<path d="M29.0875 44.0916C28.5729 44.0916 28.0583 43.902 27.6521 43.4958C26.8666 42.7104 26.8666 41.4104 27.6521 40.6249L35.7771 32.4999L27.6521 24.3749C26.8666 23.5895 26.8666 22.2895 27.6521 21.5041C28.4375 20.7187 29.7375 20.7187 30.5229 21.5041L40.0833 31.0645C40.8687 31.8499 40.8687 33.1499 40.0833 33.9354L30.5229 43.4958C30.1166 43.902 29.602 44.0916 29.0875 44.0916Z" fill="#1D1F1E"/>
</svg>
