<svg width="65" height="65" viewBox="0 0 65 65" fill="none" xmlns="http://www.w3.org/2000/svg">
<path d="M40.6248 61.6147H24.3748C9.66859 61.6147 3.38525 55.3313 3.38525 40.6251V24.3751C3.38525 9.66883 9.66859 3.3855 24.3748 3.3855H40.6248C55.3311 3.3855 61.6144 9.66883 61.6144 24.3751V40.6251C61.6144 55.3313 55.3311 61.6147 40.6248 61.6147ZM24.3748 7.448C11.8894 7.448 7.44775 11.8897 7.44775 24.3751V40.6251C7.44775 53.1105 11.8894 57.5522 24.3748 57.5522H40.6248C53.1103 57.5522 57.5519 53.1105 57.5519 40.6251V24.3751C57.5519 11.8897 53.1103 7.448 40.6248 7.448H24.3748Z" fill="#1D1F1E"/>
<path d="M35.9125 44.0916C35.398 44.0916 34.8834 43.902 34.4771 43.4958L24.9167 33.9354C24.1313 33.1499 24.1313 31.8499 24.9167 31.0645L34.4771 21.5041C35.2625 20.7187 36.5625 20.7187 37.348 21.5041C38.1334 22.2895 38.1334 23.5895 37.348 24.3749L29.223 32.4999L37.348 40.6249C38.1334 41.4104 38.1334 42.7103 37.348 43.4958C36.9688 43.902 36.4542 44.0916 35.9125 44.0916Z" fill="#1D1F1E"/>
</svg>
