<svg width="70" height="70" viewBox="0 0 70 70" fill="none" xmlns="http://www.w3.org/2000/svg">
<rect width="70" height="70" rx="35" fill="#FEE2E2"/>
<path d="M34.5006 21.7501V21.8207M21.8207 34.5006H21.7501M43.5164 25.4849L43.4665 25.5348M25.5351 43.4662L25.4852 43.5161M25.5351 25.534L25.4852 25.4841M34.5001 54.9001C23.2335 54.9001 14.1001 45.7667 14.1001 34.5001C14.1001 23.2335 23.2335 14.1001 34.5001 14.1001C45.7667 14.1001 54.9001 23.2335 54.9001 34.5001C54.9001 37.93 51.7309 40.2121 48.301 40.2121H46.9695C46.282 40.2121 45.604 40.3722 44.989 40.6796C42.8015 41.7734 41.9148 44.4335 43.0086 46.621C43.316 47.236 43.4761 47.914 43.4761 48.6015V49.0035C43.4761 51.3423 42.1637 53.557 39.9082 54.1755C38.1858 54.6479 36.3724 54.9001 34.5001 54.9001Z" stroke="#EF4444" stroke-width="5" stroke-linecap="round" stroke-linejoin="round"/>
</svg>
